<svg width="184" height="185" viewBox="0 0 184 185" fill="none" xmlns="http://www.w3.org/2000/svg">
<path d="M60.375 32.0859L63.6122 39.9922C65.6305 44.9084 68.3732 57.1962 67.7407 62.9922C59.9035 67.8222 55.0965 72.5372 51.3878 76.4702C46.8568 72.8074 37.8925 66.5859 23 66.5859H17.25V72.3359C17.25 83.3414 21.2232 92.2827 22.6435 95.3359C21.206 98.3662 17.25 106.991 17.25 118.336V124.086H23C37.7775 124.086 46.851 117.841 51.3935 114.202C58.1957 121.211 67.896 128.6 80.1435 134.148C79.603 137.719 79.1775 142.704 80.6782 148.523L81.7592 152.836H86.25C93.3455 152.836 99.4577 149.311 104.397 146.189C108.439 143.624 110.394 141.83 111.406 140.974C134.274 140.169 148.873 127.835 156.688 115.639C164.772 103.041 166.75 90.4829 166.75 90.4829L166.928 89.0454L166.393 87.6079C166.393 87.6079 153.226 51.4462 117.519 49.6924C113.723 45.0924 108.416 41.2744 100.987 38.1924C92.2012 34.5584 81.1497 32.0859 69 32.0859H60.375ZM77.0845 44.3047C84.341 45.1097 91.126 46.5759 96.4908 48.7954C103.839 51.8314 108.957 56.1842 110.147 58.1392L111.769 60.8359H115C143.727 60.8359 154.06 88.0334 154.893 90.3047C154.491 92.4149 152.824 100.436 146.987 109.533C140.312 119.929 129.507 129.836 109.25 129.836H107.094L105.478 131.273C105.478 131.273 102.442 133.861 98.2905 136.483C96.1055 137.857 94.2483 138.104 92 139.001C92.23 136.374 92 132.533 92 132.533L93.2592 127.501L88.5845 125.88C74.3475 120.446 62.238 110.205 56.0625 103.064L52.1065 98.3892L47.794 102.702C47.794 102.702 40.135 108.072 30.1875 110.608C31.671 103.869 33.9595 97.8544 33.9595 97.8544L35.2188 95.3359L33.9595 92.8174C33.9595 92.8174 31.4697 86.2164 30.0092 79.1612C40.6065 81.5014 47.794 87.9702 47.794 87.9702L52.1065 92.2827L56.0625 87.6079C61.2088 81.7947 75.0662 67.3047 95.4155 64.6079L93.794 53.2862C88.2913 54.0107 83.49 55.6034 78.8843 57.4262C78.591 52.5962 78.3438 48.4389 77.0845 44.3047ZM129.375 83.8359C127.088 83.8359 124.894 84.7446 123.276 86.3621C121.659 87.9796 120.75 90.1734 120.75 92.4609C120.75 94.7484 121.659 96.9422 123.276 98.5597C124.894 100.177 127.088 101.086 129.375 101.086C131.662 101.086 133.856 100.177 135.474 98.5597C137.091 96.9422 138 94.7484 138 92.4609C138 90.1734 137.091 87.9796 135.474 86.3621C133.856 84.7446 131.662 83.8359 129.375 83.8359Z" fill="black"/>
</svg>
