<svg width="495" height="431" viewBox="0 0 495 431" fill="none" xmlns="http://www.w3.org/2000/svg">
<path d="M166.871 151.177C152.079 131.203 132.83 88.762 145.191 61.482C168.121 10.8752 249.439 -9.07211 276.63 6.69317C270.202 7.24166 249.95 15.0524 228.825 28.3278C209.623 40.3948 201.689 72.1725 226.45 51.4564C235.118 44.2037 260.128 25.2217 276.616 21.3452C310.007 13.4949 342.203 18.894 363.599 39.2038C348.634 38.7419 319.93 39.0072 289.039 50.0973C250.426 63.96 236.119 81.9062 236.927 83.7797C237.734 85.6531 236.615 83.469 272.009 69.1428C328.434 46.3032 397.288 46.6414 435.798 102.526C397.816 77.2143 364.459 83.0144 318.596 89.7152C296.092 93.0031 255.829 108.955 260.489 113.426C265.148 117.897 270.702 114.763 288.586 110.204C306.469 105.644 343.322 103.284 365.999 105.174C415.96 109.339 467.013 108.809 491.636 193.137C449.804 151.118 390.712 146.351 339.791 144.38C329.002 143.962 262.128 147.725 265.012 164.975C266.744 175.336 297.533 168.122 306.197 167.536C314.862 166.949 354.956 163.424 366.41 163.302C377.863 163.179 402.536 162.358 432.67 176.214C462.805 190.071 477.642 208.482 482.139 215.245C486.635 222.008 495.016 244.127 494.44 260.48C493.98 273.563 494.208 287.422 494.38 292.716C487.824 282.398 469.871 259.096 442.296 242.1C407.828 220.856 380.139 213.626 366.935 211.356C353.731 209.086 333.005 208.611 332.61 216.371C332.214 224.131 353.147 234.842 363.479 239.46C373.811 244.079 398.144 254.37 407.129 259.198C416.113 264.027 441.036 281.403 456.981 296.376C472.926 311.348 476.412 324.444 478.231 345.689C479.687 362.684 466.073 399.22 461.443 405.72C464.611 395.716 461.022 380.479 448.42 365.172M166.871 151.177L153.451 149.74M166.871 151.177C168.628 141.348 167.418 106.506 172.917 88.2904C179.789 65.5215 188.645 53.7418 199.122 42.0075M166.871 151.177C171.818 140.961 185.743 116.202 201.869 98.8866C222.028 77.2419 246.442 57.4652 260.017 47.9132M166.871 151.177C170.072 152.046 174.335 153.461 179.51 155.476M166.871 151.177C118.163 159.123 55.7776 226.106 67.2916 275.856M448.42 365.172C402.697 347.2 433.69 381.561 413.399 380.053C397.072 378.841 379.645 373.721 350.789 340.803C333.244 320.787 310.644 260.385 302.094 275.059C292.304 291.861 304.876 328.794 328.282 360.224C357.098 398.917 398.466 405.836 402.103 407.601C396.412 407.523 356.077 427.613 335.464 424.126C320.033 421.516 293.225 415.065 270.987 379.48C248.749 343.895 245.015 296.138 244.107 283.016C243.381 272.519 247.159 243.259 249.139 229.941C248.797 223.363 245.789 213.022 236.49 224.285C224.866 238.365 229.543 301.512 235.71 330.509C242.749 363.603 267.381 407.945 295.796 429.922C285.112 428.047 252.515 426.414 231.974 417.198C206.298 405.679 189.935 394.3 180.211 365.725C170.486 337.15 167.822 312.928 168.563 290.95C169.304 268.972 176.49 241.255 179.568 232.709C182.03 225.873 190.969 208.403 193.745 200.049C172.124 205.913 162.255 235.73 158.193 255.529C155.043 270.884 150.478 294.989 150.753 307.644C151.261 330.997 153.955 387.809 184.393 399.296C157.048 393.622 122.802 364.291 110.779 340.582C97.3746 314.148 100.831 283.299 103.829 272.566C106.827 261.834 121.295 224.315 129.468 211.907C136.007 201.981 141.239 192.272 143.038 188.659C144.832 185.479 146.474 180.144 138.688 184.239C130.903 188.334 120.379 201.94 116.09 208.231C112.745 213.93 105.442 226.777 102.991 232.572C99.9278 239.816 90.8034 265.036 89.4232 274.516C88.0429 283.997 86.4975 299.102 88.7136 310.92C90.4864 320.374 95.075 330.577 97.1477 334.497C75.0376 328.872 42.1505 299.05 38.9716 259.273C35.9117 220.983 62.3823 196.156 86.3541 173.406C89.3919 171.11 95.3722 162.624 82.295 164.853C50.3339 170.301 25.9749 211.398 20.4649 240.117C14.2376 236.013 1.6435 208.863 0.985486 192.116C0.0324261 167.86 12.0125 146.11 32.7619 134.351M448.42 365.172C436.317 355.332 399.013 324.762 388.681 315.738C377.631 306.087 348.021 291.111 317.683 246.151M153.451 149.74C142.812 140.071 131.444 132.382 122.149 127.501C112.855 122.621 94.0596 119.058 71.4614 121.021C59.0073 122.103 44.3076 127.807 32.7619 134.351M153.451 149.74C134.434 149.111 43.7262 143.621 27.0608 177.749M153.451 149.74C129.992 142.587 79.1084 128.353 63.2373 128.638C47.3661 128.923 36.3074 132.565 32.7619 134.351M194.688 161.992C185.925 169.582 166.187 189.642 157.335 209.154C146.271 233.544 129.496 275.389 126.513 305.183C124.127 329.017 127.981 344.412 130.205 349.13M194.688 161.992C189.024 159.359 183.934 157.198 179.51 155.476M194.688 161.992C198.856 163.929 203.336 166.123 208.09 168.586M227.096 179.093C221.605 184.606 209.689 206.216 205.955 248.551C201.287 301.469 205.138 327.762 211.684 353.634C216.921 374.331 223.776 388.593 226.549 393.136M227.096 179.093C220.382 175.153 214.023 171.66 208.09 168.586M227.096 179.093C235.91 184.263 245.336 190.202 255.21 196.968M274.392 210.775C279.53 214.654 284.752 218.744 290.039 223.053C300.252 231.378 309.425 239.062 317.683 246.151M274.392 210.775C271.771 220.713 271.181 248.286 275.374 284.789C280.723 331.353 284.919 338.274 297.58 370.162C305.507 390.128 318.86 400.249 325.418 403.546M274.392 210.775C267.847 205.834 261.439 201.236 255.21 196.968M179.51 155.476C193.388 141.064 226.457 109.95 247.709 100.792C274.275 89.3439 288.603 81.8738 310.125 77.4125M208.09 168.586C212.6 161.521 231.466 145.406 270.85 137.469C320.079 127.547 345.897 126.047 388.152 129.312C421.955 131.924 438.306 142.008 442.255 146.723M255.21 196.968C266.808 194.623 301.241 189.57 346.182 188.123C391.124 186.676 439.291 212.606 457.756 225.752M317.683 246.151C341.036 253.728 402.783 287.077 418.093 300.175C433.403 313.274 447.903 329.968 453.239 336.677" stroke="black" stroke-linecap="round" stroke-linejoin="round"/>
</svg>
