<svg width="428" height="420" viewBox="0 0 428 420" fill="none" xmlns="http://www.w3.org/2000/svg">
<path d="M268.81 164.692C286.816 147.52 313.059 108.952 305.532 79.9309C291.57 26.0946 214.775 -7.48652 185.26 3.41329C191.506 5.05351 210.146 16.2209 228.712 32.9274C245.588 48.1134 247.978 80.8133 227.099 56.1461C219.789 47.51 198.368 24.5106 182.768 17.8673C151.176 4.41405 118.497 4.23342 93.9199 20.6065C108.76 22.7102 137.026 27.8806 165.598 44.1019C201.313 64.3785 212.354 84.5259 211.238 86.2357C210.121 87.9455 211.598 85.9826 179.138 65.7995C127.39 33.6225 59.4193 22.1811 11.8793 70.7159C53.6706 52.2458 85.5793 63.6711 129.67 78.1235C151.304 85.2149 188.288 107.834 182.927 111.447C177.567 115.06 172.625 111.02 155.766 103.464C138.906 95.9087 102.961 87.2779 80.2714 85.2644C30.2805 80.8281 -19.9831 71.5748 -58.6914 150.539C-10.2447 116.248 48.854 121.652 99.4157 128.416C110.129 129.849 175.445 144.997 169.651 161.518C166.171 171.441 137.036 159.061 128.591 157C120.145 154.94 81.2013 144.607 69.9253 142.527C58.6493 140.448 34.4544 135.419 2.36242 143.932C-29.7295 152.445 -47.5131 168.068 -53.1046 173.969C-58.696 179.87 -70.7454 200.254 -72.9739 216.482C-74.7567 229.465 -77.3522 243.095 -78.4271 248.288C-70.1964 239.232 -48.5039 219.318 -18.3995 207.271C19.2309 192.212 47.7777 189.816 61.1892 189.835C74.6007 189.853 95.1248 192.93 94.1879 200.651C93.2509 208.373 70.7727 215.358 59.7919 218.146C48.8112 220.934 23.051 226.923 13.3634 230.149C3.67581 233.376 -23.8778 246.252 -42.1652 258.293C-60.4525 270.334 -66.1302 282.655 -71.5579 303.298C-75.9001 319.812 -68.7206 358.177 -65.2652 365.38C-66.6792 354.971 -60.5337 340.555 -45.4862 327.613M268.81 164.692L282.292 165.57M268.81 164.692C268.757 154.697 275.909 120.538 273.601 101.631C270.716 77.9985 263.996 64.8654 255.669 51.4998M268.81 164.692C265.678 153.77 256.177 126.968 243.232 107.131C227.051 82.3353 206.352 58.6537 194.596 46.9108M268.81 164.692C265.503 165.001 261.057 165.668 255.608 166.77M268.81 164.692C315.493 180.859 365.57 257.595 345.706 304.696M-45.4862 327.613C2.68545 317.705 -33.7599 346.296 -13.4887 348.28C2.82239 349.876 20.8859 347.807 54.9769 320.273C75.7056 303.531 108.326 247.819 114.25 263.756C121.032 282.002 102.317 316.28 73.8553 343.278C38.8165 376.514 -3.16909 376.264 -7.05824 377.382C-1.43201 378.279 34.9162 404.992 55.8432 405.078C71.5103 405.142 99.0541 403.364 127.074 372.069C155.094 340.773 166.943 294.308 170.083 281.521C172.595 271.291 173.872 241.785 174.196 228.311C175.659 221.881 180.394 212.195 187.64 224.895C196.697 240.77 181.285 302.254 170.243 329.8C157.641 361.238 125.763 400.761 93.9776 417.578C104.836 417.556 137.267 421.52 159.103 415.943C186.398 408.972 204.483 400.547 218.962 374.026C233.44 347.505 240.21 324.069 243.237 302.264C246.265 280.46 243.917 251.894 242.344 242.938C241.084 235.774 235.255 217.015 233.945 208.3C254.267 217.781 258.902 248.879 259.523 269.101C260.004 284.785 260.384 309.342 257.949 321.776C253.454 344.723 241.082 400.298 209.095 406.422C237.037 405.503 275.831 382.429 291.744 361.1C309.486 337.32 311.352 306.302 310.231 295.203C309.109 284.104 301.255 244.624 295.316 230.988C290.564 220.08 287.063 209.609 285.907 205.737C284.681 202.294 283.974 196.751 290.953 202.122C297.932 207.493 305.985 222.712 309.139 229.65C311.464 235.844 316.471 249.764 317.897 255.899C319.679 263.567 324.366 290.003 324.106 299.59C323.846 309.177 322.787 324.339 318.58 335.617C315.215 344.639 308.944 353.918 306.229 357.43C328.999 355.663 366.537 331.873 376.475 293.182C386.041 255.94 364.178 226.925 344.424 200.387C341.821 197.602 337.373 188.21 349.891 192.645C380.483 203.484 397.481 248.184 398.004 277.454C404.848 274.471 421.913 249.846 425.426 233.44C430.514 209.679 422.418 186.177 403.963 171.03M-45.4862 327.613C-31.8656 319.977 10.1555 296.204 21.8897 289.07C34.4391 281.441 66.2058 271.734 103.817 232.577M282.292 165.57C294.439 157.852 306.967 152.212 316.969 148.988C326.971 145.764 346.118 145.464 368.072 151.265C380.171 154.462 393.694 162.602 403.963 171.03M282.292 165.57C301.157 168.202 391.563 178.299 402.164 214.81M282.292 165.57C306.653 162.526 359.276 157.188 374.881 160.184C390.486 163.179 400.771 168.663 403.963 171.03M239.524 170.602C246.869 179.587 262.907 202.748 268.3 223.507C275.042 249.456 284.431 293.598 282.278 323.494C280.556 347.411 274.123 361.936 271.121 366.209M239.524 170.602C245.561 168.973 250.951 167.713 255.608 166.77M239.524 170.602C235.081 171.8 230.287 173.198 225.177 174.814M204.634 181.927C209.107 188.304 217.165 211.656 213.608 254.051C209.162 307.044 200.867 332.318 189.986 356.717C181.281 376.236 172.081 389.131 168.569 393.138M204.634 181.927C211.93 179.19 218.8 176.832 225.177 174.814M204.634 181.927C195.056 185.519 184.744 189.765 173.847 194.75M152.566 205.088C146.836 208.035 140.986 211.176 135.034 214.522C123.536 220.986 113.175 226.997 103.817 232.577M152.566 205.088C153.452 215.339 149.319 242.635 138.94 277.922C125.701 322.934 120.379 329.043 102.438 358.33C91.2047 376.668 76.304 384.367 69.2715 386.497M152.566 205.088C159.867 201.334 166.974 197.895 173.847 194.75M255.608 166.77C244.385 150.182 217.089 113.838 197.693 101.171C173.448 85.3369 160.594 75.5185 140.129 67.4378M225.177 174.814C221.937 167.074 206.084 147.954 168.597 133.39C121.737 115.185 96.5282 109.29 54.2931 105.284C20.5051 102.08 2.6539 109.229 -2.04816 113.205M173.847 194.75C162.809 190.453 129.711 179.582 85.6313 170.468C41.5515 161.355 -10.3911 178.694 -30.8524 188.502M103.817 232.577C79.4877 236.056 12.8826 258.39 -4.45826 268.691C-21.7991 278.993 -38.9559 292.978 -45.3667 298.683" stroke="black" stroke-linecap="round" stroke-linejoin="round"/>
</svg>
