<svg width="139" height="139" viewBox="0 0 139 139" fill="none" xmlns="http://www.w3.org/2000/svg">
<path d="M52 0.460938C37.1535 0.460938 23.9458 8.72944 14.8033 21.3047C5.66075 33.8857 0.25 50.8597 0.25 69.4609C0.25 88.0564 5.66075 105.042 14.8033 117.617C23.9458 130.198 37.1535 138.461 52 138.461C99.3225 138.461 124.548 111.396 130.706 82.9389C135.03 79.8109 138.25 75.1879 138.25 69.4609C138.25 63.7339 135.036 59.1109 130.7 55.9829C124.22 26.8074 94.0498 0.460938 52 0.460938ZM52 11.9609C62.557 11.9609 72.355 17.8029 79.853 28.1357C87.351 38.4569 92.25 53.1309 92.25 69.4609C92.25 85.7909 87.351 100.453 79.853 110.792C72.3493 121.113 62.557 126.961 52 126.961C41.443 126.961 31.645 121.119 24.147 110.786C16.649 100.465 11.75 85.7909 11.75 69.4609C11.75 53.1309 16.649 38.4684 24.147 28.1299C31.6508 17.8029 41.443 11.9609 52 11.9609ZM88.6562 20.7642C106.136 30.0217 117.36 45.2477 120.103 60.1172L120.638 62.9922L123.34 64.2514C125.335 65.1714 126.75 67.1034 126.75 69.4609C126.75 71.8184 125.336 73.7504 123.335 74.6704L120.644 75.9297L120.103 78.8047C117.044 95.4509 107.005 111.775 86.8565 120.492C87.6442 119.549 88.455 118.629 89.1967 117.617C98.3392 105.036 103.75 88.0622 103.75 69.4609C103.75 50.8654 98.3392 33.8799 89.1967 21.3047C89.0358 21.1034 88.8115 20.9654 88.6562 20.7642ZM52 23.4609C47.8888 23.4609 44.0247 24.9444 40.5 27.4169L52.1782 54.9019L64.0405 27.5894C60.395 24.9272 56.2665 23.4609 52 23.4609ZM31.875 36.5767C27.3612 43.6492 24.262 53.1367 23.4283 63.7109H43.375L31.875 36.5767ZM72.4873 37.1172L60.7975 63.7109H80.566C79.761 53.3782 76.8343 44.1494 72.4758 37.1172H72.4873ZM23.4225 75.2109C24.2275 85.5437 27.1542 94.7724 31.507 101.805L43.2025 75.2109H23.4225ZM60.6192 75.2109L72.1193 102.345C76.633 95.2727 79.7323 85.7852 80.566 75.2109H60.6192ZM51.816 84.0142L39.9537 111.327C43.5935 114 47.7277 115.461 51.9942 115.461C56.1055 115.461 59.9695 113.977 63.4942 111.505L51.816 84.0142Z" fill="black"/>
</svg>
