<svg width="150" height="121" viewBox="0 0 150 121" fill="none" xmlns="http://www.w3.org/2000/svg">
<path d="M43.375 0.0859375L46.6122 7.99219C48.6305 12.9084 51.3733 25.1962 50.7408 30.9922C42.9035 35.8222 38.0965 40.5372 34.3878 44.4702C29.8568 40.8074 20.8925 34.5859 6 34.5859H0.25V40.3359C0.25 51.3414 4.22325 60.2827 5.6435 63.3359C4.206 66.3662 0.25 74.9912 0.25 86.3359V92.0859H6C20.7775 92.0859 29.851 85.8414 34.3935 82.2017C41.1957 89.2109 50.896 96.5997 63.1435 102.148C62.603 105.719 62.1775 110.704 63.6783 116.523L64.7592 120.836H69.25C76.3455 120.836 82.4578 117.311 87.397 114.189C91.4393 111.624 93.3943 109.83 94.4062 108.974C117.274 108.169 131.873 95.8349 139.688 83.6392C147.772 71.0409 149.75 58.4829 149.75 58.4829L149.928 57.0454L149.393 55.6079C149.393 55.6079 136.226 19.4462 100.518 17.6924C96.7235 13.0924 91.4162 9.27444 83.9872 6.19244C75.2012 2.55844 64.1497 0.0859375 52 0.0859375H43.375ZM60.0845 12.3047C67.341 13.1097 74.126 14.5759 79.4908 16.7954C86.8393 19.8314 91.9568 24.1842 93.147 26.1392L94.7685 28.8359H98C126.727 28.8359 137.06 56.0334 137.893 58.3047C137.491 60.4149 135.823 68.4362 129.987 77.5327C123.311 87.9287 112.507 97.8359 92.25 97.8359H90.0938L88.478 99.2734C88.478 99.2734 85.442 101.861 81.2905 104.483C79.1055 105.857 77.2483 106.104 75 107.001C75.23 104.374 75 100.533 75 100.533L76.2592 95.5014L71.5845 93.8799C57.3475 88.4462 45.238 78.2054 39.0625 71.0639L35.1065 66.3892L30.794 70.7017C30.794 70.7017 23.135 76.0722 13.1875 78.6079C14.671 71.8689 16.9595 65.8544 16.9595 65.8544L18.2188 63.3359L16.9595 60.8174C16.9595 60.8174 14.4697 54.2164 13.0092 47.1612C23.6065 49.5014 30.794 55.9702 30.794 55.9702L35.1065 60.2827L39.0625 55.6079C44.2087 49.7947 58.0662 35.3047 78.4155 32.6079L76.794 21.2862C71.2913 22.0107 66.49 23.6034 61.8842 25.4262C61.591 20.5962 61.3438 16.4389 60.0845 12.3047V12.3047ZM112.375 51.8359C110.088 51.8359 107.894 52.7446 106.276 54.3621C104.659 55.9796 103.75 58.1734 103.75 60.4609C103.75 62.7484 104.659 64.9422 106.276 66.5597C107.894 68.1772 110.088 69.0859 112.375 69.0859C114.662 69.0859 116.856 68.1772 118.474 66.5597C120.091 64.9422 121 62.7484 121 60.4609C121 58.1734 120.091 55.9796 118.474 54.3621C116.856 52.7446 114.662 51.8359 112.375 51.8359Z" fill="black"/>
</svg>
