<svg width="145" height="139" viewBox="0 0 145 139" fill="none" xmlns="http://www.w3.org/2000/svg">
<path d="M103.531 0.609375L97.0626 10.1314C97.0626 10.1314 100.587 12.8741 102.272 16.7841C103.733 20.2169 104.791 24.2419 99.2189 30.9751L94.1876 36.0121C77.2539 21.5911 60.0441 20.9126 60.0441 20.9126H56.8126L55.0129 23.7876C55.0129 23.7876 40.3504 48.7196 26.2629 74.4624C19.2191 87.3309 12.2501 100.429 7.40861 110.762C4.97636 115.926 3.06736 120.422 1.83111 124.056C1.22736 125.873 0.796107 127.403 0.577607 129.087C0.347607 130.772 -0.279141 133.084 2.54986 135.918C5.38461 138.747 7.69611 138.115 9.38086 137.891C11.0656 137.666 12.5951 137.241 14.4121 136.637C18.0519 135.401 22.5426 133.492 27.7119 131.06C38.0274 126.212 51.1259 119.255 64.0001 112.205C89.7199 98.0949 114.675 83.4554 114.675 83.4554L117.55 81.6556V78.2401C117.55 78.2401 116.785 61.2374 102.456 44.2806L104.428 42.1244C104.923 41.6299 105.371 41.2906 105.866 40.8651L107.303 39.6059C114.088 34.3964 120.511 34.6034 126.175 36.0179C130.104 37.0106 133.818 38.7138 137.134 41.0434L144.322 32.0619C144.322 32.0619 137.939 27.1456 128.866 24.8744C126.859 24.4027 124.817 24.1026 122.759 23.9774L134.438 12.2934L126.169 4.03063L114.134 16.0711C113.844 14.7148 113.422 13.3899 112.875 12.1151C109.638 4.57113 103.531 0.615126 103.531 0.615126V0.609375ZM62.9191 33.1314C66.6969 33.4936 77.5011 35.0634 90.4156 48.0469C103.353 61.0764 104.946 71.7944 105.325 75.5376C104.382 76.1011 99.4661 79.0681 95.6251 81.2876C93.5883 76.7701 91.0562 72.4928 88.0754 68.5341L78.9156 75.5434C82.9579 80.9311 84.6196 84.6399 85.5626 87.0434C76.5573 92.1451 67.5122 97.1765 58.4284 102.137C57.8706 102.425 57.3761 102.741 56.8126 103.034C55.7546 99.8889 54.0296 96.0939 50.8844 91.7124L41.5406 98.3594C44.3696 102.315 45.7611 105.57 46.3936 107.703C46.5029 108.065 46.5029 108.152 46.5661 108.422C37.9699 113.028 29.6611 117.449 22.8531 120.641C19.3054 122.308 16.7869 123.228 14.2281 124.234C15.2401 121.676 16.1601 119.157 17.8219 115.609C22.4679 105.708 29.3449 92.7934 36.3254 80.0341C39.6949 73.8816 42.2594 69.2759 45.3126 63.8594C47.1526 65.4751 49.5331 67.6544 52.1436 71.0469L61.1251 64.0376C58.2088 60.1669 54.8295 56.6679 51.0626 53.6186C57.0829 43.0616 61.8899 34.9081 62.9249 33.1314H62.9191Z" fill="black"/>
</svg>
