<svg width="39" height="31" viewBox="0 0 39 31" fill="none" xmlns="http://www.w3.org/2000/svg">
<path d="M38.5278 4.20262C37.0862 4.81761 35.5569 5.22043 33.9911 5.39759C35.6396 4.44638 36.8733 2.95044 37.4626 1.18815C35.9123 2.07354 34.2171 2.69872 32.4495 3.03703C31.3666 1.92144 29.9604 1.14563 28.4139 0.810477C26.8673 0.47532 25.2518 0.596322 23.7776 1.15775C22.3033 1.71917 21.0385 2.69505 20.1475 3.95848C19.2565 5.22191 18.7806 6.71445 18.7816 8.24201C18.7816 8.84027 18.8506 9.41998 18.9902 9.97495C15.8484 9.82593 12.7744 9.04063 9.96858 7.67022C7.16278 6.29981 4.68812 4.37505 2.70588 2.02138C2.0016 3.18312 1.63219 4.50509 1.63587 5.85053C1.63587 8.48936 3.02672 10.8205 5.15069 12.1856C3.89613 12.1472 2.6694 11.8196 1.57331 11.2302V11.3276C1.57223 13.0855 2.20285 14.7896 3.35801 16.1502C4.51317 17.5108 6.12159 18.444 7.90993 18.7911C6.74698 19.0985 5.52627 19.1439 4.34217 18.9241C4.84655 20.4364 5.82853 21.7592 7.15095 22.7076C8.47337 23.656 10.0702 24.1827 11.7183 24.2141C10.0798 25.4534 8.20384 26.3691 6.19767 26.9089C4.19151 27.4487 2.09456 27.602 0.0268555 27.3599C3.63716 29.5988 7.84053 30.7876 12.1338 30.7841C26.6647 30.7841 34.6119 19.1838 34.6119 9.12317C34.6119 8.79853 34.5991 8.46462 34.5863 8.13844C36.1304 7.06104 37.4648 5.72913 38.5278 4.20417V4.20262Z" fill="#333333"/>
</svg>
