<svg width="40" height="31" viewBox="0 0 40 31" fill="none" xmlns="http://www.w3.org/2000/svg">
<path d="M20.0727 0.625C14.496 0.625 9.56791 1.2131 6.56039 1.66247C4.07264 2.03343 2.06614 3.94099 1.60857 6.46832C1.22208 8.61867 0.822266 11.7643 0.822266 15.7045C0.822266 19.6448 1.22208 22.7919 1.60857 24.9408C2.06614 27.4681 4.07264 29.3817 6.56039 29.7481C9.58123 30.1945 14.5256 30.7841 20.0727 30.7841C25.6198 30.7841 30.5657 30.196 33.5851 29.7466C36.0729 29.3817 38.0794 27.4681 38.5369 24.9408C38.9234 22.7844 39.3232 19.6328 39.3232 15.7045C39.3232 11.7763 38.9293 8.6247 38.5369 6.46832C38.0794 3.94099 36.0729 2.03343 33.5851 1.66096C30.5776 1.21461 25.648 0.625 20.0727 0.625ZM20.0727 3.64091C25.4525 3.64091 30.2592 4.20036 33.169 4.63013C33.7737 4.71815 34.3359 4.99763 34.776 5.42902C35.2161 5.8604 35.5118 6.42182 35.6212 7.03381C35.9796 9.02431 36.3616 11.9754 36.3616 15.7045C36.3616 19.4277 35.9796 22.3848 35.6212 24.3753C35.5137 24.9881 35.2186 25.5506 34.7781 25.9824C34.3377 26.4141 33.7745 26.6929 33.169 26.779C30.2459 27.2087 25.417 27.7682 20.0727 27.7682C14.727 27.7682 9.8922 27.2087 6.9765 26.779C6.37146 26.6918 5.8088 26.4126 5.36855 25.9811C4.9283 25.5495 4.63287 24.9876 4.52428 24.3753C4.16593 22.3848 3.78388 19.4397 3.78388 15.7045C3.78388 11.9648 4.16593 9.02431 4.52428 7.03381C4.63287 6.42144 4.9283 5.85954 5.36855 5.428C5.8088 4.99647 6.37146 4.71727 6.9765 4.63013C9.88036 4.20036 14.693 3.64091 20.0727 3.64091ZM15.6303 7.08055V24.33L17.8515 23.0573L28.2172 17.0255L30.4384 15.7045L28.2172 14.3851L17.8515 8.35327L15.6303 7.08055ZM18.5919 12.2649L24.4693 15.7045L18.5919 19.1442V12.2649Z" fill="#4F4F4F"/>
</svg>
