<svg width="36" height="37" viewBox="0 0 36 37" fill="none" xmlns="http://www.w3.org/2000/svg">
<path d="M3.23722 0.738281C1.48222 0.738281 0.0288086 2.21812 0.0288086 4.00503V33.4058C0.0288086 35.1927 1.48222 36.6725 3.23722 36.6725H32.1129C33.8679 36.6725 35.3214 35.1927 35.3214 33.4058V4.00503C35.3214 2.21812 33.8679 0.738281 32.1129 0.738281H3.23722ZM3.23722 4.00503H32.1129V33.4058H23.7903V22.3805H27.9516L28.5532 17.4804H23.7919V14.3149C23.7919 12.8873 24.1352 11.9171 26.1469 11.9171H28.7537V7.47595C28.3094 7.41878 26.7677 7.32241 24.9951 7.32241C21.2974 7.32241 18.7788 9.5879 18.7788 13.8053V17.4804H14.5677V22.3805H18.7772V33.4058H3.23722V4.00503Z" fill="#4F4F4F"/>
</svg>
