<svg width="37" height="37" viewBox="0 0 37 37" fill="none" xmlns="http://www.w3.org/2000/svg">
<path d="M11.436 0.738281C5.63625 0.738281 0.870117 5.49804 0.870117 11.3042V26.1066C0.870117 31.9064 5.62987 36.6725 11.436 36.6725H26.2385C32.0382 36.6725 36.8043 31.9128 36.8043 26.1066V11.3042C36.8043 5.50442 32.0446 0.738281 26.2385 0.738281H11.436ZM11.436 4.00503H26.2385C30.2772 4.00503 33.5376 7.2654 33.5376 11.3042V26.1066C33.5376 30.1454 30.2772 33.4058 26.2385 33.4058H11.436C7.39723 33.4058 4.13687 30.1454 4.13687 26.1066V11.3042C4.13687 7.2654 7.39723 4.00503 11.436 4.00503ZM28.4843 7.57804C27.6613 7.57804 27.0041 8.23521 27.0041 9.05828C27.0041 9.88135 27.6613 10.5385 28.4843 10.5385C29.3074 10.5385 29.9646 9.88135 29.9646 9.05828C29.9646 8.23521 29.3074 7.57804 28.4843 7.57804ZM18.8372 8.90515C13.4458 8.90515 9.03699 13.314 9.03699 18.7054C9.03699 24.0968 13.4458 28.5056 18.8372 28.5056C24.2286 28.5056 28.6375 24.0968 28.6375 18.7054C28.6375 13.314 24.2286 8.90515 18.8372 8.90515ZM18.8372 12.1719C22.4677 12.1719 25.3707 15.075 25.3707 18.7054C25.3707 22.3358 22.4677 25.2389 18.8372 25.2389C15.2068 25.2389 12.3037 22.3358 12.3037 18.7054C12.3037 15.075 15.2068 12.1719 18.8372 12.1719Z" fill="#333333"/>
</svg>
