<svg width="282" height="235" viewBox="0 0 282 235" fill="none" xmlns="http://www.w3.org/2000/svg">
<path opacity="0.48" d="M126.771 76.1668C126.771 111.152 112.685 144.417 84.5138 175.961C56.3425 207.505 32.4832 227.005 12.9358 234.461L0 213.814C19.5474 203.49 36.2202 188.292 50.0183 168.218C63.8165 148.145 71.8654 127.498 74.1651 106.277C67.2661 109.718 57.7798 111.439 45.7064 111.439C34.208 111.439 24.1468 106.277 15.5229 95.9536C7.47401 85.63 3.44954 72.1521 3.44954 55.5198C3.44954 38.3139 9.48624 24.836 21.5596 15.086C33.633 5.33595 48.581 0.460938 66.4037 0.460938C84.8012 0.460938 99.4618 6.76977 110.385 19.3874C121.309 31.4316 126.771 50.358 126.771 76.1668ZM282 76.1668C282 111.152 267.914 144.417 239.743 175.961C211.572 207.505 187.713 227.005 168.165 234.461L155.229 213.814C174.777 203.49 191.45 188.292 205.248 168.218C219.046 148.145 227.095 127.498 229.395 106.277C222.495 109.718 213.009 111.439 200.936 111.439C189.437 111.439 179.376 106.277 170.752 95.9536C162.703 85.63 158.679 72.1521 158.679 55.5198C158.679 38.3139 164.716 24.836 176.789 15.086C188.862 5.33595 203.81 0.460938 221.633 0.460938C240.031 0.460938 254.691 6.76977 265.615 19.3874C276.538 31.4316 282 50.358 282 76.1668Z" fill="#EBF0E4"/>
</svg>
